<svg viewBox="0 0 81.867 24.537" xmlns="http://www.w3.org/2000/svg">
  <g transform="translate(8.519 -36.333)">
    <rect x="-8.034" y="36.818" width="80.898" height="23.568" ry=".946" fill="#202020" fill-rule="evenodd"
      stroke="#81c3c9" stroke-linecap="round" stroke-linejoin="round" stroke-width=".969" />
    <g fill="#fff" fill-rule="evenodd" stroke="#fff" stroke-width=".45" aria-label="Intelli">
      <path
        d="M13.82 53.027q-.012.108-.084.18t-.168.072q-.12 0-.192-.072-.06-.072-.06-.18V45.13q0-.108.072-.18t.18-.072.18.072.072.18zM18.74 47.099q.756 0 1.224.3.48.3.696.816.228.516.228 1.152v3.672q0 .096-.072.168t-.168.072q-.108 0-.18-.072-.06-.072-.06-.168v-3.624q0-.516-.18-.936-.168-.42-.552-.672-.372-.252-.984-.252-.528 0-1.032.252t-.84.672q-.324.42-.324.936v3.624q0 .096-.072.168t-.168.072q-.108 0-.18-.072-.06-.072-.06-.168V47.53q0-.096.072-.168t.168-.072q.108 0 .168.072.072.072.072.168v1.176l-.3.576q0-.432.228-.828t.6-.696q.372-.312.816-.48.456-.18.9-.18zM22.328 47.243h2.784q.096 0 .156.072.072.072.072.156 0 .096-.072.168-.06.06-.156.06h-2.784q-.084 0-.156-.072t-.072-.156q0-.096.072-.156.072-.072.156-.072zm1.224-1.764q.108 0 .168.072.072.072.072.168v6.252q0 .396.096.588.108.18.264.24.156.048.3.048.084 0 .144-.024t.144-.024.144.072q.06.06.06.144 0 .108-.144.192-.132.072-.336.072H24.2q-.18-.012-.396-.108-.204-.108-.348-.372-.144-.276-.144-.804v-6.276q0-.096.072-.168t.168-.072zM29.312 53.399q-.9 0-1.596-.384-.684-.384-1.08-1.08-.396-.708-.396-1.656 0-1.008.384-1.716.396-.708 1.008-1.08.624-.384 1.32-.384.504 0 .984.168.48.156.852.504.384.336.612.852.24.504.264 1.212 0 .096-.072.18-.072.072-.168.072h-4.896l-.072-.456h4.836l-.12.108v-.216q-.06-.636-.408-1.068-.336-.432-.816-.648-.48-.228-.996-.228-.36 0-.756.168-.396.156-.732.492-.336.324-.552.828-.204.504-.204 1.176 0 .732.288 1.344.3.612.876.984.588.372 1.44.372.408 0 .768-.132.36-.144.648-.372t.468-.492q.096-.108.204-.108.084 0 .144.072.06.06.06.144t-.048.144q-.372.48-.96.84-.576.36-1.284.36zM33.824 53.039q0 .096-.072.168t-.168.072q-.108 0-.18-.072-.06-.072-.06-.168v-8.4q0-.096.072-.168t.168-.072q.108 0 .168.072.072.072.072.168zM36.416 53.039q0 .096-.072.168t-.168.072q-.108 0-.18-.072-.06-.072-.06-.168v-8.4q0-.096.072-.168t.168-.072q.108 0 .168.072.072.072.072.168zM38.948 53.039q0 .096-.072.168t-.168.072q-.108 0-.18-.072-.06-.072-.06-.168v-5.7q0-.096.072-.168t.168-.072q.108 0 .168.072.072.072.072.168zm-.24-6.756q-.192 0-.312-.108-.108-.108-.108-.276v-.096q0-.168.12-.276t.312-.108q.168 0 .276.108.12.108.12.276v.096q0 .168-.12.276-.108.108-.288.108z" />
    </g>
    <g fill="#53b1ff" fill-rule="evenodd" stroke="#81c3c9" stroke-width=".45" aria-label="Plan">
      <path
        d="M45.008 44.852q.684 0 1.188.288.516.288.792.804.288.516.288 1.2 0 .672-.288 1.212-.276.54-.792.852-.504.312-1.188.312h-2.664l.048-.084v3.576q0 .096-.084.168-.072.072-.168.072-.12 0-.192-.072-.06-.072-.06-.168v-7.92q0-.096.072-.168t.168-.072zm0 4.188q.552 0 .936-.24.396-.252.612-.684t.216-.972q0-.552-.216-.948-.216-.408-.612-.636-.384-.228-.936-.228h-2.652l.036-.06v3.804l-.048-.036zM49.35 53.012q0 .096-.071.168t-.168.072q-.108 0-.18-.072-.06-.072-.06-.168v-8.4q0-.096.072-.168t.168-.072q.108 0 .168.072.072.072.072.168zM56.359 47.264q.108 0 .168.072.072.072.072.168v5.508q0 .096-.072.168t-.168.072q-.108 0-.18-.072-.06-.072-.06-.168v-1.704l.192-.156q0 .384-.192.78t-.528.72-.792.528q-.456.192-.984.192-.804 0-1.44-.42-.624-.42-.984-1.14t-.36-1.62q0-.912.36-1.608.372-.708.996-1.104.636-.408 1.428-.408.516 0 .972.192.456.18.792.516.348.336.54.792.192.444.192.972l-.192-.3v-1.74q0-.096.06-.168.072-.072.18-.072zm-2.52 5.652q.672 0 1.2-.348.528-.36.828-.972.3-.624.3-1.404 0-.744-.3-1.344-.3-.612-.828-.96-.528-.36-1.2-.36-.66 0-1.188.348-.528.336-.84.936-.3.6-.3 1.38t.3 1.404q.3.612.828.972.528.348 1.2.348zM61.315 47.072q.756 0 1.224.3.48.3.696.816.228.516.228 1.152v3.672q0 .096-.072.168t-.168.072q-.108 0-.18-.072-.06-.072-.06-.168v-3.624q0-.516-.18-.936-.168-.42-.552-.672-.372-.252-.984-.252-.528 0-1.032.252t-.84.672q-.324.42-.324.936v3.624q0 .096-.072.168t-.168.072q-.108 0-.18-.072-.06-.072-.06-.168v-5.508q0-.096.072-.168t.168-.072q.108 0 .168.072.072.072.072.168v1.176l-.3.576q0-.432.228-.828t.6-.696q.372-.312.816-.48.456-.18.9-.18z" />
    </g>
    <path
      d="M5.6 48.769a.3.3 0 01.3.3.3.3 0 01-.3.3.3.3 0 01-.3-.3.3.3 0 01.3-.3m-2.334-2.034c.43-.43 1.36-.237 2.334.402.975-.64 1.905-.831 2.334-.402.43.429.237 1.359-.402 2.334.64.975.831 1.905.402 2.334s-1.359.237-2.334-.402c-.975.639-1.905.831-2.334.402-.429-.43-.237-1.36.402-2.334-.639-.975-.83-1.905-.402-2.334m3.396 1.272c.183.186.351.375.507.564.414-.64.564-1.188.34-1.41-.223-.225-.772-.075-1.41.339.188.156.377.324.563.507M4.538 50.13a8.683 8.683 0 01-.507-.564c-.414.639-.564 1.188-.339 1.41.222.225.771.075 1.41-.339a8.686 8.686 0 01-.564-.507m-.846-2.97c-.225.222-.075.77.34 1.41.155-.189.323-.378.506-.564a8.68 8.68 0 01.564-.507c-.639-.414-1.188-.564-1.41-.34m1.272 2.545c.21.21.426.402.636.573a8.432 8.432 0 001.21-1.209 8.432 8.432 0 00-1.21-1.21 8.432 8.432 0 00-1.209 1.21c.171.21.363.426.573.636m2.544 1.272c.225-.222.075-.77-.339-1.41a8.684 8.684 0 01-.507.564 8.68 8.68 0 01-.564.507c.64.414 1.188.564 1.41.34z"
      fill="#81c3c9" />
    <g fill="none" stroke="#81c3c9" stroke-linejoin="round" transform="translate(-.334 -.501)">
      <rect x="1.594" y="45.095" width="8.707" height="8.763" ry=".945" stroke-width=".969" />
      <path d="M3.329 44.139v1.338M8.65 44.139v1.338" stroke-linecap="round" stroke-width=".851" />
    </g>
  </g>
</svg>